<svg width="92" height="29" viewBox="0 0 92 29" fill="none" xmlns="http://www.w3.org/2000/svg">
<path d="M14.787 9.9385C14.787 6.65876 17.4458 4 20.7255 4V4C24.0052 4 26.664 6.65876 26.664 9.9385V9.9385C26.664 13.2182 24.0052 15.877 20.7255 15.877V15.877C17.4458 15.877 14.787 13.2182 14.787 9.9385V9.9385Z" fill="url(#paint0_linear_2_6)"/>
<path d="M6 15.086C6 13.9814 6.89543 13.086 8 13.086H15.877C16.9816 13.086 17.877 13.9814 17.877 15.086V22.963C17.877 24.0676 16.9816 24.963 15.877 24.963H8C6.89543 24.963 6 24.0676 6 22.963V15.086Z" fill="#1544EF"/>
<path d="M36.612 13.18C35.684 13.18 34.924 12.94 34.332 12.46C33.74 11.98 33.38 11.34 33.252 10.54L35.088 10.084C35.176 10.564 35.356 10.924 35.628 11.164C35.908 11.396 36.256 11.512 36.672 11.512C36.88 11.512 37.064 11.48 37.224 11.416C37.392 11.352 37.524 11.256 37.62 11.128C37.716 11 37.764 10.848 37.764 10.672C37.764 10.512 37.716 10.372 37.62 10.252C37.524 10.124 37.368 10.004 37.152 9.892C36.936 9.772 36.648 9.644 36.288 9.508C35.72 9.284 35.256 9.048 34.896 8.8C34.536 8.544 34.272 8.252 34.104 7.924C33.936 7.596 33.852 7.22 33.852 6.796C33.852 6.332 33.964 5.924 34.188 5.572C34.42 5.212 34.74 4.932 35.148 4.732C35.564 4.524 36.044 4.42 36.588 4.42C37.172 4.42 37.688 4.556 38.136 4.828C38.592 5.092 38.956 5.496 39.228 6.04L37.728 6.952C37.576 6.672 37.396 6.46 37.188 6.316C36.988 6.164 36.768 6.088 36.528 6.088C36.384 6.088 36.252 6.116 36.132 6.172C36.012 6.228 35.916 6.308 35.844 6.412C35.772 6.508 35.736 6.624 35.736 6.76C35.736 6.896 35.776 7.024 35.856 7.144C35.944 7.264 36.1 7.388 36.324 7.516C36.548 7.636 36.86 7.772 37.26 7.924C37.796 8.124 38.236 8.344 38.58 8.584C38.932 8.824 39.196 9.104 39.372 9.424C39.548 9.736 39.636 10.112 39.636 10.552C39.636 11.064 39.508 11.52 39.252 11.92C39.004 12.312 38.652 12.62 38.196 12.844C37.748 13.068 37.22 13.18 36.612 13.18ZM42.2161 10.576V8.2L45.5641 4.636H48.0961L42.2161 10.576ZM40.7041 13V4.636H42.5881V13H40.7041ZM45.8881 13L43.3681 8.98L44.7721 7.672L48.1201 13H45.8881ZM48.8838 13V4.636H50.7678V13H48.8838ZM52.1885 13V4.636H54.0725V11.32H57.5045V13H52.1885ZM58.3057 13V4.636H60.1897V11.32H63.6217V13H58.3057ZM33.708 25V16.636H36.828C37.684 16.636 38.356 16.824 38.844 17.2C39.332 17.576 39.576 18.096 39.576 18.76C39.576 19.128 39.504 19.456 39.36 19.744C39.216 20.032 39.016 20.268 38.76 20.452C39.2 20.644 39.52 20.912 39.72 21.256C39.928 21.592 40.032 22.004 40.032 22.492C40.032 23.268 39.784 23.88 39.288 24.328C38.8 24.776 38.128 25 37.272 25H33.708ZM35.592 23.272H37.116C37.804 23.272 38.148 22.984 38.148 22.408C38.148 22.128 38.056 21.912 37.872 21.76C37.696 21.608 37.444 21.532 37.116 21.532H35.592V23.272ZM35.592 19.852H36.828C37.1 19.852 37.312 19.784 37.464 19.648C37.616 19.504 37.692 19.308 37.692 19.06C37.692 18.836 37.616 18.664 37.464 18.544C37.32 18.424 37.108 18.364 36.828 18.364H35.592V19.852ZM41.126 25V16.636H44.066C44.77 16.636 45.334 16.74 45.758 16.948C46.182 17.148 46.49 17.436 46.682 17.812C46.874 18.18 46.97 18.612 46.97 19.108C46.97 19.924 46.738 20.548 46.274 20.98C45.81 21.404 45.158 21.636 44.318 21.676C44.094 21.676 43.878 21.676 43.67 21.676C43.462 21.676 43.298 21.676 43.178 21.676H43.01V25H41.126ZM45.578 25L43.526 21.472L45.458 21.244L47.762 25H45.578ZM43.01 19.996H43.874C44.074 19.996 44.266 19.98 44.45 19.948C44.634 19.908 44.786 19.828 44.906 19.708C45.026 19.58 45.086 19.388 45.086 19.132C45.086 18.876 45.026 18.692 44.906 18.58C44.786 18.46 44.634 18.388 44.45 18.364C44.266 18.332 44.074 18.316 43.874 18.316H43.01V19.996ZM48.5791 25V16.636H50.4631V25H48.5791ZM51.8838 25V16.636H54.4038C55.8038 16.636 56.8878 17.004 57.6558 17.74C58.4238 18.476 58.8078 19.524 58.8078 20.884C58.8078 22.212 58.4278 23.232 57.6678 23.944C56.9158 24.648 55.8238 25 54.3918 25H51.8838ZM53.7678 23.272H54.1998C54.7678 23.272 55.2518 23.208 55.6518 23.08C56.0598 22.952 56.3718 22.712 56.5878 22.36C56.8038 22 56.9118 21.484 56.9118 20.812C56.9118 20.164 56.8078 19.664 56.5998 19.312C56.3998 18.952 56.1078 18.704 55.7238 18.568C55.3478 18.432 54.8958 18.364 54.3678 18.364H53.7678V23.272ZM63.5474 25.216C62.7794 25.216 62.0954 25.032 61.4954 24.664C60.9034 24.296 60.4354 23.784 60.0914 23.128C59.7474 22.464 59.5754 21.692 59.5754 20.812C59.5754 19.932 59.7474 19.164 60.0914 18.508C60.4354 17.852 60.9154 17.34 61.5314 16.972C62.1474 16.604 62.8594 16.42 63.6674 16.42C64.5874 16.42 65.3794 16.652 66.0434 17.116C66.7074 17.572 67.1834 18.204 67.4714 19.012L65.6954 19.648C65.5354 19.2 65.2794 18.852 64.9274 18.604C64.5834 18.348 64.1634 18.22 63.6674 18.22C63.2194 18.22 62.8274 18.324 62.4914 18.532C62.1634 18.74 61.9074 19.036 61.7234 19.42C61.5474 19.804 61.4594 20.268 61.4594 20.812C61.4594 21.356 61.5474 21.824 61.7234 22.216C61.9074 22.6 62.1634 22.896 62.4914 23.104C62.8274 23.312 63.2194 23.416 63.6674 23.416C63.9074 23.416 64.1514 23.384 64.3994 23.32C64.6474 23.248 64.8754 23.132 65.0834 22.972C65.2994 22.804 65.4714 22.568 65.5994 22.264C65.7354 21.96 65.8034 21.576 65.8034 21.112V20.716L66.2234 22.036H63.7874V20.356H67.4714V25H65.8154L65.5514 23.824L65.8754 24.088C65.7234 24.32 65.5314 24.524 65.2994 24.7C65.0754 24.868 64.8154 24.996 64.5194 25.084C64.2314 25.172 63.9074 25.216 63.5474 25.216ZM68.7588 25V16.636H74.3748V18.316H70.6428V19.852H74.1948V21.532H70.6428V23.32H74.3748V25H68.7588Z" fill="white"/>
<defs>
<linearGradient id="paint0_linear_2_6" x1="26.5" y1="3.979" x2="14" y2="16.479" gradientUnits="userSpaceOnUse">
<stop stop-color="white"/>
<stop offset="1" stop-color="#999999"/>
</linearGradient>
</defs>
</svg>
