<svg width="92" height="29" viewBox="0 0 92 29" fill="none" xmlns="http://www.w3.org/2000/svg">
<path d="M14 9C14 5.13401 17.134 2 21 2C24.866 2 28 5.13401 28 9C28 12.866 24.866 16 21 16C17.134 16 14 12.866 14 9Z" fill="url(#paint0_linear_2_6)"/>
<path d="M36.18 14V5.645H33.12V3.545H41.61V5.645H38.565V14H36.18ZM40.3689 14L44.7189 3.545H46.4439L50.7789 14H48.2139L45.5889 7.055L42.9339 14H40.3689ZM43.4889 12.23L44.2239 10.13H46.9389L47.7039 12.23H43.4889ZM51.6975 14V3.545H54.0525V11.9H58.3425V14H51.6975ZM59.344 14V3.545H66.364V5.645H61.699V7.565H66.139V9.665H61.699V11.9H66.364V14H59.344ZM67.9426 14V3.545H70.3426L74.9026 10.91H74.2876V3.545H76.6426V14H74.2276L69.6976 6.62H70.2976V14H67.9426ZM80.7113 14V5.645H77.6513V3.545H86.1413V5.645H83.0963V14H80.7113ZM33.885 26V15.545H37.785C38.855 15.545 39.695 15.78 40.305 16.25C40.915 16.72 41.22 17.37 41.22 18.2C41.22 18.66 41.13 19.07 40.95 19.43C40.77 19.79 40.52 20.085 40.2 20.315C40.75 20.555 41.15 20.89 41.4 21.32C41.66 21.74 41.79 22.255 41.79 22.865C41.79 23.835 41.48 24.6 40.86 25.16C40.25 25.72 39.41 26 38.34 26H33.885ZM36.24 23.84H38.145C39.005 23.84 39.435 23.48 39.435 22.76C39.435 22.41 39.32 22.14 39.09 21.95C38.87 21.76 38.555 21.665 38.145 21.665H36.24V23.84ZM36.24 19.565H37.785C38.125 19.565 38.39 19.48 38.58 19.31C38.77 19.13 38.865 18.885 38.865 18.575C38.865 18.295 38.77 18.08 38.58 17.93C38.4 17.78 38.135 17.705 37.785 17.705H36.24V19.565ZM43.1575 26V15.545H46.8325C47.7125 15.545 48.4175 15.675 48.9475 15.935C49.4775 16.185 49.8625 16.545 50.1025 17.015C50.3425 17.475 50.4625 18.015 50.4625 18.635C50.4625 19.655 50.1725 20.435 49.5925 20.975C49.0125 21.505 48.1975 21.795 47.1475 21.845C46.8675 21.845 46.5975 21.845 46.3375 21.845C46.0775 21.845 45.8725 21.845 45.7225 21.845H45.5125V26H43.1575ZM48.7225 26L46.1575 21.59L48.5725 21.305L51.4525 26H48.7225ZM45.5125 19.745H46.5925C46.8425 19.745 47.0825 19.725 47.3125 19.685C47.5425 19.635 47.7325 19.535 47.8825 19.385C48.0325 19.225 48.1075 18.985 48.1075 18.665C48.1075 18.345 48.0325 18.115 47.8825 17.975C47.7325 17.825 47.5425 17.735 47.3125 17.705C47.0825 17.665 46.8425 17.645 46.5925 17.645H45.5125V19.745ZM52.4739 26V15.545H54.8289V26H52.4739ZM56.6047 26V15.545H59.7547C61.5047 15.545 62.8597 16.005 63.8197 16.925C64.7797 17.845 65.2597 19.155 65.2597 20.855C65.2597 22.515 64.7847 23.79 63.8347 24.68C62.8947 25.56 61.5297 26 59.7397 26H56.6047ZM58.9597 23.84H59.4997C60.2097 23.84 60.8147 23.76 61.3147 23.6C61.8247 23.44 62.2147 23.14 62.4847 22.7C62.7547 22.25 62.8897 21.605 62.8897 20.765C62.8897 19.955 62.7597 19.33 62.4997 18.89C62.2497 18.44 61.8847 18.13 61.4047 17.96C60.9347 17.79 60.3697 17.705 59.7097 17.705H58.9597V23.84ZM71.1843 26.27C70.2243 26.27 69.3693 26.04 68.6193 25.58C67.8793 25.12 67.2943 24.48 66.8643 23.66C66.4343 22.83 66.2193 21.865 66.2193 20.765C66.2193 19.665 66.4343 18.705 66.8643 17.885C67.2943 17.065 67.8943 16.425 68.6643 15.965C69.4343 15.505 70.3243 15.275 71.3343 15.275C72.4843 15.275 73.4743 15.565 74.3043 16.145C75.1343 16.715 75.7293 17.505 76.0893 18.515L73.8693 19.31C73.6693 18.75 73.3493 18.315 72.9093 18.005C72.4793 17.685 71.9543 17.525 71.3343 17.525C70.7743 17.525 70.2843 17.655 69.8643 17.915C69.4543 18.175 69.1343 18.545 68.9043 19.025C68.6843 19.505 68.5743 20.085 68.5743 20.765C68.5743 21.445 68.6843 22.03 68.9043 22.52C69.1343 23 69.4543 23.37 69.8643 23.63C70.2843 23.89 70.7743 24.02 71.3343 24.02C71.6343 24.02 71.9393 23.98 72.2493 23.9C72.5593 23.81 72.8443 23.665 73.1043 23.465C73.3743 23.255 73.5893 22.96 73.7493 22.58C73.9193 22.2 74.0043 21.72 74.0043 21.14V20.645L74.5293 22.295H71.4843V20.195H76.0893V26H74.0193L73.6893 24.53L74.0943 24.86C73.9043 25.15 73.6643 25.405 73.3743 25.625C73.0943 25.835 72.7693 25.995 72.3993 26.105C72.0393 26.215 71.6343 26.27 71.1843 26.27ZM77.6985 26V15.545H84.7185V17.645H80.0535V19.565H84.4935V21.665H80.0535V23.9H84.7185V26H77.6985Z" fill="white"/>
<path d="M11 14C11 12.8954 11.8954 12 13 12H22.3043C23.4089 12 24.3043 12.8954 24.3043 14V22C24.3043 23.1046 23.4089 24 22.3043 24H13C11.8954 24 11 23.1046 11 22V14Z" fill="#1544EF"/>
<defs>
<linearGradient id="paint0_linear_2_6" x1="27.8067" y1="1.97525" x2="13.0723" y2="16.7096" gradientUnits="userSpaceOnUse">
<stop stop-color="white"/>
<stop offset="1" stop-color="#999999"/>
</linearGradient>
</defs>
</svg>
